<?xml version="1.0" encoding="UTF-8"?>
<svg id="_圖層_1" data-name="圖層 1" xmlns="http://www.w3.org/2000/svg" viewBox="0 0 90.71 90.71">
  <defs>
    <style>
      .cls-1 {
        fill: #000;
        stroke-width: 0px;
      }
    </style>
  </defs>
  <path class="cls-1" d="M47.23,85.61c-9.62-.18-18.43-1.85-26.02-7.18-8.43-5.91-12.66-14.53-13.67-24.59-1.04-10.43,1.59-19.93,8.29-28.22.69-.85.78-2.45.64-3.64-.54-4.67-.41-9.27.79-13.82.85-3.23,1.32-3.48,4.6-2.68,4.23,1.03,7.57,3.46,10.28,6.77.85,1.04,1.56,1.35,2.93.97,7.64-2.09,15.3-2.1,22.89.24,1.49.46,2.33-.02,3.46-.96,2.72-2.25,5.53-4.46,8.56-6.25,2.26-1.33,2.94-.75,4.13,1.54,2.72,5.25,2.91,10.81,2.39,16.52-.12,1.29.12,2.79.71,3.93,3.93,7.53,6.32,15.38,6.16,24-.32,17.36-13.08,31.33-30.36,32.94-2.08.19-4.17.3-5.78.41ZM71.81,9.27l-.95-.33c-2.63,1.97-5.49,3.7-7.81,5.98-1.68,1.65-3.11,1.97-5.29,1.49-7.39-1.62-14.89-2.29-22.31-.43-2.78.7-4.65.36-6.28-2-.69-.99-1.68-1.85-2.69-2.53-1.74-1.18-3.61-2.16-5.72-3.4-1.23,4.63-1.93,8.78-1.23,12.91.54,3.2-.31,5.54-2.21,8.05-5.27,6.97-7.94,14.88-6.91,23.69,1.46,12.45,7.3,21.96,19.38,26.62,10.32,3.97,20.88,4.08,31.36.55,8.16-2.75,13.93-8.12,16.8-16.37,3.58-10.29,3.23-20.56-1.58-30.23-2.52-5.06-3.61-9.95-3.34-15.48.14-2.81-.78-5.67-1.22-8.51Z"/>
  <path class="cls-1" d="M34.72,48.84c.97.63,1.7,1.16,2.47,1.61,2.91,1.7,6.44.32,6.83-2.81.11-.85-.59-1.83-.98-2.72-.32-.72-1.14-1.53-.97-2.08.18-.62,1.15-1.21,1.89-1.41.94-.26,2.06-.35,2.97-.08.93.28,2.12.94,2.39,1.72.21.59-.89,1.6-1.34,2.46-.32.6-.81,1.3-.73,1.89.42,3.16,3.06,4.5,5.99,3.17.68-.31,1.38-.6,2.15-.93,1.03,1.75.12,2.79-.98,3.67-2.07,1.66-4.88,1.78-7.08.06-1.15-.91-1.88-.84-3.01-.1-2.37,1.57-4.94,1.68-7.5.42-1.84-.91-2.95-2.24-2.1-4.87Z"/>
  <path class="cls-1" d="M32.25,33.22c1.82.1,4.04.87,5.21,3.28.31.65-.05,1.63-.1,2.46-.76-.06-1.61.06-2.28-.23-1.11-.48-2.05-1.45-3.18-1.8-2.19-.68-3.8.61-5.36,1.97-.5.44-1.28.55-1.93.81-.08-.77-.41-1.63-.18-2.29.87-2.51,3.91-4.23,7.82-4.2Z"/>
  <path class="cls-1" d="M66.79,39.52c-1.12-.48-1.58-.59-1.93-.84-3.01-2.19-5.92-2.13-8.9.15-.53.41-1.61.11-2.43.14-.02-.78-.33-1.73,0-2.31,2.34-4.17,10.25-4.15,12.59.02.37.65.37,1.5.67,2.85Z"/>
  <path class="cls-1" d="M13.31,52.67c1.13-3.41,3.37-4.46,5.73-5.13,1.51-.43,3.17-.38,4.77-.41.41,0,1.22.56,1.19.75-.09.51-.43,1.25-.85,1.39-3.39,1.14-6.81,2.16-10.83,3.4Z"/>
  <path class="cls-1" d="M67.15,50.87c2.82,1.33,5.45,2.51,8,3.85.44.23.52,1.15.77,1.75-.62.04-1.28.24-1.85.09-2.52-.65-5.03-1.31-7.49-2.16-.8-.28-1.41-1.11-2.1-1.7.79-.54,1.57-1.08,2.66-1.84Z"/>
  <path class="cls-1" d="M16.1,59.11c.62-.88,1.05-2.09,1.9-2.58,2.31-1.34,4.76-2.45,7.25-3.45.5-.2,1.37.53,2.06.83-.47.55-.84,1.33-1.44,1.63-2.47,1.23-5,2.32-7.52,3.46-.54.24-1.08.47-1.63.71-.21-.2-.42-.4-.63-.6Z"/>
  <path class="cls-1" d="M77.4,50.86c-1.25-.06-1.83-.03-2.4-.12-2.49-.38-5-.71-7.46-1.23-.73-.16-1.34-.88-2.01-1.35.63-.49,1.36-1.5,1.87-1.4,2.76.52,5.49,1.26,8.18,2.08.57.17.94,1.01,1.81,2.02Z"/>
</svg>